<svg xmlns="http://www.w3.org/2000/svg" viewBox="0 0 200 320" fill="none">
  <defs>
    <radialGradient id="g" cx="50%" cy="38%" r="60%">
      <stop offset="0%" stop-color="#3a2218" />
      <stop offset="100%" stop-color="#120806" />
    </radialGradient>
  </defs>
  <ellipse cx="100" cy="298" rx="62" ry="10" fill="#000" opacity="0.55" />
  <path d="M100 30 C 80 30 70 50 70 70 C 70 88 82 96 100 96 C 118 96 130 88 130 70 C 130 50 120 30 100 30 Z" fill="url(#g)" />
  <path d="M62 110 C 62 100 78 96 100 96 C 122 96 138 100 138 110 L 150 200 C 150 220 130 226 100 226 C 70 226 50 220 50 200 Z" fill="url(#g)" />
  <path d="M50 200 L 40 270 L 70 270 L 80 220 Z" fill="url(#g)" />
  <path d="M150 200 L 160 270 L 130 270 L 120 220 Z" fill="url(#g)" />
  <rect x="155" y="40" width="6" height="180" fill="#5a3a26" />
  <path d="M148 220 L 168 220 L 158 250 Z" fill="#5a3a26" />
</svg>
