<svg xmlns="http://www.w3.org/2000/svg" viewBox="0 0 200 320" fill="none">
  <defs>
    <radialGradient id="g4" cx="50%" cy="40%" r="60%">
      <stop offset="0%" stop-color="#3a1010" />
      <stop offset="100%" stop-color="#100404" />
    </radialGradient>
  </defs>
  <ellipse cx="100" cy="298" rx="78" ry="11" fill="#000" opacity="0.6" />
  <path d="M100 36 C 70 36 56 60 56 86 C 56 108 76 118 100 118 C 124 118 144 108 144 86 C 144 60 130 36 100 36 Z" fill="url(#g4)" />
  <path d="M64 50 L 50 30 L 76 60 Z" fill="url(#g4)" />
  <path d="M136 50 L 150 30 L 124 60 Z" fill="url(#g4)" />
  <circle cx="86" cy="84" r="4" fill="#ffb030" />
  <circle cx="114" cy="84" r="4" fill="#ffb030" />
  <path d="M48 130 C 48 120 70 116 100 116 C 130 116 152 120 152 130 L 168 240 C 168 260 138 268 100 268 C 62 268 32 260 32 240 Z" fill="url(#g4)" />
</svg>
