<svg xmlns="http://www.w3.org/2000/svg" viewBox="0 0 200 320" fill="none">
  <defs>
    <radialGradient id="g5" cx="50%" cy="50%" r="60%">
      <stop offset="0%" stop-color="#352818" />
      <stop offset="100%" stop-color="#0e0805" />
    </radialGradient>
  </defs>
  <ellipse cx="100" cy="298" rx="80" ry="11" fill="#000" opacity="0.6" />
  <path d="M30 200 C 30 150 50 110 100 110 C 150 110 170 150 170 200 L 160 260 C 160 280 130 286 100 286 C 70 286 40 280 40 260 Z" fill="url(#g5)" />
  <path d="M40 130 C 40 100 60 80 100 80 C 140 80 160 100 160 130 L 150 160 L 50 160 Z" fill="url(#g5)" />
  <path d="M64 90 L 50 60 L 76 96 Z" fill="url(#g5)" />
  <path d="M136 90 L 150 60 L 124 96 Z" fill="url(#g5)" />
  <circle cx="86" cy="120" r="3" fill="#ff7030" />
  <circle cx="114" cy="120" r="3" fill="#ff7030" />
</svg>
