<svg xmlns="http://www.w3.org/2000/svg" viewBox="0 0 200 320" fill="none">
  <defs>
    <radialGradient id="g2" cx="50%" cy="38%" r="60%">
      <stop offset="0%" stop-color="#2c1c14" />
      <stop offset="100%" stop-color="#0a0504" />
    </radialGradient>
  </defs>
  <ellipse cx="100" cy="298" rx="55" ry="9" fill="#000" opacity="0.55" />
  <path d="M100 38 C 84 38 74 56 74 76 C 74 92 86 100 100 100 C 114 100 126 92 126 76 C 126 56 116 38 100 38 Z" fill="url(#g2)" />
  <path d="M74 70 L 60 50 L 90 66 Z" fill="url(#g2)" />
  <path d="M126 70 L 140 50 L 110 66 Z" fill="url(#g2)" />
  <path d="M70 110 C 70 102 84 100 100 100 C 116 100 130 102 130 110 L 140 210 C 140 226 122 230 100 230 C 78 230 60 226 60 210 Z" fill="url(#g2)" />
  <path d="M60 210 L 52 274 L 78 274 L 86 226 Z" fill="url(#g2)" />
  <path d="M140 210 L 148 274 L 122 274 L 114 226 Z" fill="url(#g2)" />
</svg>
